<svg width="14" height="4" viewBox="0 0 14 4" fill="none" xmlns="http://www.w3.org/2000/svg">
<path fill-rule="evenodd" clip-rule="evenodd" d="M1.99998 3.66665C2.92045 3.66665 3.66665 2.92045 3.66665 1.99998C3.66665 1.07951 2.92045 0.333313 1.99998 0.333313C1.07951 0.333313 0.333313 1.07951 0.333313 1.99998C0.333313 2.92045 1.07951 3.66665 1.99998 3.66665ZM7 3.66667C7.92047 3.66667 8.66667 2.92047 8.66667 2C8.66667 1.07953 7.92047 0.333333 7 0.333333C6.07953 0.333333 5.33333 1.07953 5.33333 2C5.33333 2.92047 6.07953 3.66667 7 3.66667ZM13.6667 2C13.6667 2.92047 12.9205 3.66667 12 3.66667C11.0795 3.66667 10.3333 2.92047 10.3333 2C10.3333 1.07953 11.0795 0.333333 12 0.333333C12.9205 0.333333 13.6667 1.07953 13.6667 2Z" fill="#394748"/>
</svg>
