<svg width="287" height="126" viewBox="0 0 287 126" fill="none" xmlns="http://www.w3.org/2000/svg"><path d="M208.545 20.455c5.297 8.908 10.924 17.486 15.89 23.095C233.372 21.775 243.303 8.578 252.241 0h-12.579c-9.931 3.63-18.538 8.578-25.82 14.847-1.986 1.98-3.642 3.959-5.297 5.608zM104.27 33.322c1.324-10.887 3.972-23.754 8.606-33.322H43.692c19.861 5.939 39.061 14.847 53.626 27.714 2.317 2.31 4.635 3.959 6.952 5.608zm7.624 4.619c8.607 4.95 16.883 6.929 24.165 5.609 14.234-2.31 21.517-15.176 21.517-15.176.331-.33.993-1.98 2.317-3.63C155.259 15.177 149.631 5.94 143.011 0h-21.186c-4.965 7.918-8.276 23.425-9.931 37.941zM45.018 50.809c11.917 41.24 19.861 59.386 36.082 57.736 4.634-.66 8.275-4.619 11.255-10.228-5.628-12.537-11.587-27.713-18.207-44.87-9.93-26.063-33.765-40.91-59.254-48.828-.993.33-1.655.99-2.648 1.65 14.234 9.238 26.813 23.424 32.772 44.54zm142.345-39.262c-6.621 0-13.903 7.589-18.538 13.857 4.966 11.218 7.945 20.785 7.945 21.775 1.655 4.949 3.641 9.898 5.958 14.517 0-.99.332-1.98.332-2.97 0-.99 1.324-20.125 15.558-38.6-3.311-5.61-7.283-8.579-11.255-8.579z" fill="#000"/><path d="M82.094 116.464c-23.833 2.639-33.102-23.425-44.688-63.346-5.627-19.465-17.544-32.662-30.785-41.24C2.648 17.157 0 23.755 0 30.683v64.335c0 16.827 13.903 30.683 30.785 30.683h76.136c-3.31-5.278-6.951-11.547-10.261-18.805-3.642 5.279-8.607 8.908-14.566 9.568zM43.362 7.918c18.537 10.558 31.447 24.744 38.068 42.23 5.296 14.187 10.26 26.725 14.896 37.282 3.972-12.867 5.627-28.374 5.958-36.292 0-1.98.331-5.279.662-9.238-3.31-1.98-7.282-4.948-11.254-8.578-12.91-11.547-30.124-19.465-48.33-25.404zm148.301 50.809c0 1.98-.662 6.598-1.324 12.867 2.648 3.299 5.627 5.279 8.606 5.279 3.973.33 11.917-2.97 22.179-25.405-5.627-5.608-11.255-13.527-17.544-24.414-10.924 15.836-11.917 31.673-11.917 31.673zM187.359 3.63c6.62 0 12.248 3.298 16.882 9.897l4.304-4.29C212.517 5.61 216.82 2.64 221.455 0h-67.53c4.304 5.279 8.276 11.217 11.255 17.486 5.297-6.599 13.241-13.857 22.179-13.857zm-18.538 122.071c6.621-14.847 10.593-35.302 12.91-51.468-6.951-9.238-11.255-21.116-12.248-24.745-1.324-3.959-2.979-9.568-5.627-15.836-2.317 3.629-11.255 15.506-26.482 18.146-8.276 1.32-17.214-.33-26.482-4.95 0 1.65-.331 3.63-.331 5.28-.331 3.959-1.655 28.703-9.6 46.189 5.296 11.217 10.262 20.455 15.558 27.384h52.302z" fill="#000"/><path d="M256.542 41.9c-6.289 11.548-12.91 17.157-20.192 17.157h-.331c-2.98 0-5.628-.99-8.607-2.64-8.938 19.466-18.206 28.704-28.799 28.044-3.642 0-6.952-1.65-9.931-3.63-1.986 13.857-5.627 30.683-11.255 44.87h109.57V30.683c0-9.238-4.304-17.486-10.924-23.424-3.31 4.618-7.283 12.207-13.572 24.084l-5.959 10.558z" fill="#000"/><path d="M231.055 48.499c0 .33-.331.66-.331.99 1.986 1.32 3.641 1.98 5.296 1.98 4.304 0 8.607-4.29 13.242-12.868l5.627-10.557c6.289-11.878 10.593-19.796 14.565-25.074-1.986-.66-3.641-1.32-5.296-1.98-9.6 6.598-21.848 20.125-33.103 47.509z" fill="#000"/><path fill-rule="evenodd" clip-rule="evenodd" d="M125.459 125.701H30.786C13.903 125.701 0 111.845 0 95.019V30.683C0 13.857 13.903 0 30.786 0h225.429C273.097 0 287 13.857 287 30.683v95.018H125.459z" fill="#E30000"/><path d="M254.89 28.044L249.263 38.6c-4.634 8.578-8.938 12.867-13.241 12.867-1.655 0-3.31-.66-5.296-1.98 0-.33.331-.66.331-.99C242.312 21.116 254.559 7.589 264.159.99c-2.648-.66-4.965-.99-7.944-.99h-3.973c-8.937 8.578-18.537 21.775-27.806 43.55-4.965-5.609-10.593-14.187-15.889-23.095 1.655-1.65 3.31-3.629 5.296-5.608C221.126 8.578 229.732 3.629 239.663 0h-18.206c-4.635 2.64-8.938 5.609-12.91 9.238a16066.6 16066.6 0 01-4.304 4.289c-4.634-6.599-10.261-9.898-16.551-9.898h-.331c-8.938 0-16.882 7.258-22.179 13.857-3.31-6.269-6.951-12.207-11.255-17.486h-10.923c6.62 5.939 12.248 15.177 16.882 24.744-1.324 1.65-1.986 3.3-2.317 3.63 0 0-7.283 12.866-21.517 15.176-7.283 1.32-15.558-.66-24.165-5.609 1.655-14.516 4.966-30.023 9.931-37.941h-8.938c-4.634 9.568-7.282 22.435-8.606 33.322-2.318-1.65-4.635-3.299-6.952-5.608C82.757 14.847 63.557 5.939 43.696 0h-12.91c-5.959 0-11.255 1.65-15.89 4.619 25.49 7.918 49.323 22.765 59.254 48.829 6.62 17.156 12.58 32.332 18.207 44.87-2.98 5.608-6.62 9.567-11.255 10.227-16.22 1.65-24.165-16.496-36.082-57.737-5.959-21.115-18.538-35.302-32.772-44.54a45.111 45.111 0 00-5.627 5.61c13.572 8.577 25.158 21.774 30.785 41.24 11.586 39.92 20.855 65.985 44.689 63.345 5.958-.66 10.924-4.289 14.565-9.568 3.31 7.259 6.951 13.527 10.262 18.806h9.6c-4.966-6.928-10.262-16.166-15.559-27.384 7.945-17.486 9.269-42.23 9.6-46.189 0-1.65.331-3.63.331-5.279 9.269 4.62 18.207 6.269 26.482 4.949 15.227-2.64 24.165-14.517 26.482-18.146 2.648 6.269 4.304 11.877 5.628 15.837.993 3.629 5.296 15.506 12.248 24.744-1.986 16.166-6.29 36.621-12.91 51.468h8.606c5.959-14.187 9.269-31.013 11.255-44.87 2.979 1.98 6.29 3.63 9.931 3.63 10.593.66 19.862-8.579 28.799-28.044 2.98 1.65 5.628 2.64 8.607 2.64h.331c7.283 0 13.903-5.61 20.193-17.157l5.958-10.557c6.29-11.878 10.262-19.136 13.572-24.085-1.986-1.65-4.303-3.299-6.951-4.289-3.642 5.28-7.945 13.197-14.235 25.075zM102.287 51.138c-.331 7.918-1.986 23.425-5.958 36.292-4.634-10.558-9.6-23.095-14.896-37.282-6.62-17.486-19.53-31.672-38.068-42.23 18.206 5.939 35.42 13.857 48.33 25.404 3.972 3.63 7.944 6.599 11.254 8.578-.331 3.96-.662 7.259-.662 9.238zm80.771 7.588c0 .99-.331 1.98-.331 2.97-2.317-4.62-4.304-9.568-5.959-14.517 0-.99-2.979-10.558-7.944-21.775 4.634-6.268 11.917-13.857 18.537-13.857 3.972 0 7.945 2.97 11.255 8.578-14.234 18.476-15.558 37.612-15.558 38.601zm15.889 18.146c-2.979 0-5.958-1.98-8.607-5.278.662-6.27 1.324-10.888 1.324-12.868 0 0 .994-15.836 11.917-31.672 6.29 10.887 11.917 18.805 17.545 24.414-10.262 22.435-18.207 25.734-22.179 25.404z" fill="#CE1111"/><path fill-rule="evenodd" clip-rule="evenodd" d="M32.77 101.616c0 .66-.332.99-.994.99H29.79c-.662 0-.993-.33-.993-.99v-9.897c0-.33.331-.99.993-.99h1.986c.662 0 .993.33.993.99v9.897zm8.281.001c0 .66-.33.99-.993.99h-1.986c-.662 0-.993-.33-.993-.99v-7.588c0-.66.33-.99.993-.99h1.986c.662 0 .993.33.993.99v7.588zm8.605 0c0 .66-.331.99-.993.99h-1.987c-.662 0-.993-.33-.993-.99v-6.269c0-.66.331-.99.993-.99h1.986c.663 0 .994.33.994.99v6.269zm8.609-.001c0 .66-.331.99-.993.99h-1.986c-.662 0-.993-.33-.993-.99V90.729c0-.66.33-.99.993-.99h1.986c.662 0 .993.33.993.99v10.887zm8.274.001c0 .66-.331.99-.993.99H63.56c-.662 0-.993-.33-.993-.99v-4.619c0-.66.33-.99.993-.99h1.986c.662 0 .993.33.993.99v4.619zm8.604 0c0 .659-.33.989-.993.989h-1.986c-.662 0-.993-.33-.993-.989v-9.238c0-.66.331-.99.993-.99h1.986c.662 0 .993.33.993.99v9.238zm8.605-.001c0 .66-.332.99-.994.99h-1.986c-.662 0-.993-.33-.993-.99V89.079c0-.66.331-.99.993-.99h1.986c.662 0 .993.33.993.99v12.537zM56.275 36.291l8.276 24.415H48l8.275-24.415zm-26.813 43.22c.662.33 8.938 3.63 9.6 3.63.662 0 .993 0 1.324-.66 0-.33 3.641-10.228 3.972-11.218h24.165c.331.99 3.973 10.888 3.973 11.218.33.33.662.66 1.324.66.33-.33 8.938-3.3 9.6-3.63.662-.33.662-.99.662-1.32-.331-1.319-16.883-45.859-17.545-47.838-1.655-4.62-3.641-8.908-9.93-8.908-6.29 0-8.276 4.619-9.931 8.908-.662 2.31-16.883 46.19-17.545 47.839-.33.66-.33 1.32.331 1.32z" fill="#FFFFFE"/><path d="M104.933 19.136v86.77" stroke="#F2F1F0" stroke-width="1.649"/><path fill-rule="evenodd" clip-rule="evenodd" d="M131.751 52.128h5.958l-2.317-6.599c-.331-.33-.331-.99-.662-1.98-.331 1.32-.331 1.65-.662 2.31l-2.317 6.269zm-9.269 8.578l8.938-22.765h6.62l8.938 22.765h-6.29l-1.324-3.63h-9.268l-1.325 3.63h-6.289zm47.003-22.765v22.765h-5.959V43.55h-4.965c-.662 9.238-1.986 17.486-8.276 17.486-.993 0-1.655 0-2.648-.33v-5.279c.331 0 .993.33 1.655 0 3.642-.33 3.642-10.557 3.973-17.486h16.22zm10.264 17.486h3.31c1.655 0 3.31-.66 3.31-2.64 0-1.979-1.655-2.639-3.31-2.639h-3.31v5.28zm-5.959 5.279V37.94h5.959v7.26h2.979c5.628 0 9.931 1.65 9.931 7.919 0 5.938-4.303 7.918-9.931 7.918h-8.938v-.33zm36.742-6.599c3.972-.33 4.965-2.97 4.965-4.949 0-1.98-.993-4.619-4.965-4.949v9.898zm-5.628 0V44.21c-3.972.33-4.965 2.97-4.965 4.95 0 2.309.662 4.618 4.965 4.948zm0 7.918v-2.639c-6.62-.33-10.924-3.96-10.924-9.898s4.304-9.568 10.924-9.897v-2.64h5.628v2.64c6.62.33 10.924 3.959 10.924 9.897 0 5.939-4.304 9.568-10.924 9.898v2.64h-5.628zm25.156-9.897h5.959l-2.318-6.599c-.331-.66-.331-.99-.662-2.31-.331 1.32-.331 1.65-.662 2.31l-2.317 6.599zm-9.269 8.578l8.938-22.765h6.621l8.937 22.765h-6.289l-1.324-3.63h-9.269l-1.324 3.63h-6.29zM140.025 86.44c3.972-.33 4.965-2.97 4.965-4.95 0-1.979-.993-4.618-4.965-4.948v9.898zm-5.959 0v-9.898c-3.972.33-4.965 2.97-4.965 4.949 0 2.31.993 4.619 4.965 4.949zm0 7.588v-2.64c-6.62-.33-10.924-3.959-10.924-9.897 0-5.939 4.304-9.568 10.924-9.898v-2.64h5.628v2.64c6.62.33 10.923 3.96 10.923 9.898s-4.303 9.567-10.923 9.897v2.64h-5.628zm30.454-18.805c-3.972 0-5.959 2.64-5.959 6.269s1.987 6.268 5.959 6.268c3.972 0 5.958-2.64 5.958-6.269s-1.986-6.268-5.958-6.268zm0-5.609c8.276 0 12.248 5.609 12.248 11.877 0 6.27-3.972 11.878-12.248 11.878s-12.248-5.609-12.248-11.877c0-6.269 3.972-11.878 12.248-11.878zm24.5 5.939h-3.311v5.279h3.311c1.655 0 3.31-.66 3.31-2.64s-1.324-2.639-3.31-2.639zm-.331-5.279c5.627 0 9.93 1.98 9.93 7.918 0 5.939-4.303 7.589-9.93 7.919h-2.98v7.258h-5.958V70.274h8.938zm29.128 0v5.279h-10.262v3.3h9.269v5.278h-9.269v3.63h10.593v5.278h-16.551V70.274h16.22zm3.64 22.765V70.274h6.289v8.578h2.649l5.296-8.578h6.621l-7.283 10.888 7.614 11.877h-6.621l-5.627-8.908h-2.649v8.908h-6.289z" fill="#FFFFFE"/><path fill-rule="evenodd" clip-rule="evenodd" d="M254.56 69.614c2.317 0 4.634.33 6.62 1.32v5.609c-1.324-1.32-3.641-1.98-5.627-1.98-3.642 0-7.283 1.98-7.283 6.928 0 4.29 3.641 6.27 6.952 6.27 2.317 0 4.634-.66 5.627-1.98v5.938c-1.986.99-4.303 1.32-6.62 1.32-6.29 0-12.579-3.3-12.579-11.547.662-8.249 6.951-11.878 12.91-11.878z" fill="#FFFFFE"/></svg>