<svg width="556" height="140" viewBox="0 0 556 140" fill="red" xmlns="http://www.w3.org/2000/svg"><mask id="a" fill="#fff"><path fill-rule="evenodd" clip-rule="evenodd" d="M21 0c-5.523 0-10 4.477-10 10v2.034L.951 20.224a1 1 0 000 1.551L11 29.965V130c0 5.523 4.477 10 10 10h525c5.523 0 10-4.477 10-10V10c0-5.523-4.477-10-10-10H21z"/></mask><path d="M11 12.034l.632.775.368-.3v-.475h-1zM.951 20.224l-.632-.774.632.775zm0 1.551l-.632.775.632-.775zM11 29.965h1v-.474l-.368-.3-.632.775zM12 10a9 9 0 019-9v-2c-6.075 0-11 4.925-11 11h2zm0 2.034V10h-2v2.034h2zM1.583 21l10.049-8.19-1.264-1.551L.32 19.449 1.583 21zm0 0L.319 19.45a2 2 0 000 3.1L1.583 21zm10.049 8.19L1.582 21 .32 22.55l10.05 8.191 1.263-1.55zM12 130V29.966h-2V130h2zm9 9a9 9 0 01-9-9h-2c0 6.075 4.925 11 11 11v-2zm525 0H21v2h525v-2zm9-9a9 9 0 01-9 9v2c6.075 0 11-4.925 11-11h-2zm0-120v120h2V10h-2zm-9-9a9 9 0 019 9h2c0-6.075-4.925-11-11-11v2zM21 1h525v-2H21v2z" fill="#D3DFE3" mask="url(#a)"/></svg>