<svg width="164" height="40" viewBox="0 0 164 40" fill="none" xmlns="http://www.w3.org/2000/svg"><path d="M12.652 21.68c0 7.145.418 14.126.418 15.03 0 1.558-2.008 1.313-2.933.82C4.102 33.998 0 27.511 0 20.037 0 8.952 9.13 0 20.441 0c6.032 0 11.477 2.546 15.247 6.651 1.34 1.478 0 1.888-.504 1.888H13.149s-.497 6.735-.497 13.141z" fill="#DB1414"/><path d="M20.441 30.055v8.458c0 1.069 1.004 1.559 1.508 1.478 10.558-.739 18.934-9.362 18.934-19.957 0-1.068-.086-2.136-.25-3.12-.086-.41-.755-1.233-1.59-1.233H20.358v7.145h10.558s.086 1.233-.418 3.37c-.504 2.216-1.09 3.12-1.09 3.12s-3.69.578-8.968.739z" fill="#DB1414"/><path d="M54.21 14.756h9.72v2.053h-7.458v3.53h6.618v2.053h-6.618v5.253h-2.261V14.756zm11.395 0h2.262v12.812h-2.262V14.756zm5.027 0h5.864c1.508 0 2.68.41 3.437 1.15.586.574.922 1.232.922 2.135 0 1.56-.922 2.382-1.844 2.876 1.508.494 2.598 1.394 2.598 3.12 0 2.302-1.926 3.531-4.86 3.531h-6.031V14.756h-.086zm5.446 5.422c1.507 0 2.43-.574 2.43-1.727 0-.984-.837-1.642-2.262-1.642h-3.352v3.45h3.184v-.081zm.671 5.422c1.59 0 2.512-.575 2.512-1.727 0-1.068-.836-1.727-2.68-1.727h-3.684v3.531h3.856l-.004-.077zm6.031-4.438c0-3.61 2.848-6.651 6.868-6.651 4.023 0 6.785 2.956 6.785 6.57 0 3.612-2.848 6.652-6.867 6.652-4.023.084-6.785-2.956-6.785-6.57zm11.31 0c0-2.546-1.844-4.598-4.442-4.598-2.597 0-4.441 2.052-4.441 4.518 0 2.462 1.844 4.598 4.441 4.598 2.598 0 4.441-1.971 4.441-4.518zm3.855 0c0-3.53 2.597-6.651 6.535-6.651 2.179 0 3.601.658 4.859 1.727l-.922 1.068c-1.004-.904-2.094-1.478-4.023-1.478-2.934 0-4.942 2.381-4.942 5.254 0 3.036 2.008 5.337 5.195 5.337a6.113 6.113 0 003.77-1.313v-3.201h-4.023V20.59h5.445v5.093c-1.257 1.068-3.015 1.968-5.277 1.968-4.106.165-6.617-2.795-6.617-6.49zm14.574-6.406h5.613c1.59 0 2.934.494 3.684 1.314.672.658 1.004 1.558 1.004 2.546 0 2.136-1.508 3.37-3.519 3.78l4.023 5.253h-1.844l-3.769-5.012h-3.684v5.012h-1.508V14.756zm5.531 6.49c1.926 0 3.351-.984 3.351-2.627 0-1.558-1.257-2.546-3.351-2.546h-4.023v5.173h4.023zm6.449-.084c0-3.61 2.68-6.651 6.703-6.651 4.024 0 6.703 3.037 6.703 6.57 0 3.531-2.679 6.652-6.703 6.652-4.023.084-6.703-3.04-6.703-6.57zm11.895 0c0-2.956-2.179-5.338-5.195-5.338-3.016 0-5.113 2.382-5.113 5.258 0 2.875 2.18 5.337 5.195 5.337 2.937 0 5.113-2.3 5.113-5.257zm3.687 1.068v-7.474h1.508v7.39c0 2.792 1.508 4.354 4.023 4.354 2.43 0 3.938-1.394 3.938-4.27v-7.474h1.508v7.39c0 3.78-2.18 5.664-5.446 5.664-3.351.007-5.531-1.968-5.531-5.58zm13.824-7.474h4.942c2.933 0 4.859 1.559 4.859 4.105 0 2.792-2.347 4.19-5.113 4.19h-3.183v4.517h-1.508l.003-12.812zm4.692 6.98c2.179 0 3.601-1.148 3.601-2.79 0-1.808-1.422-2.792-3.519-2.792h-3.352v5.663h3.266v-.08h.004z" fill="#1E1E1E"/></svg>