<svg width="14" height="14" viewBox="0 0 14 14" fill="none" xmlns="http://www.w3.org/2000/svg"><path d="M9.625 0h-5.25A4.375 4.375 0 000 4.375v5.25A4.375 4.375 0 004.375 14h5.25A4.375 4.375 0 0014 9.625v-5.25A4.375 4.375 0 009.625 0zm3.063 9.625a3.066 3.066 0 01-3.063 3.063h-5.25a3.066 3.066 0 01-3.063-3.063v-5.25a3.066 3.066 0 013.063-3.063h5.25a3.066 3.066 0 013.063 3.063v5.25z" fill="#fff"/><path d="M7 3.5a3.5 3.5 0 100 7 3.5 3.5 0 000-7zm0 5.688A2.19 2.19 0 014.812 7 2.19 2.19 0 017 4.812 2.19 2.19 0 019.188 7 2.19 2.19 0 017 9.188zm3.762-5.484a.466.466 0 100-.933.466.466 0 000 .933z" fill="#fff"/></svg>