<svg width="150" height="19" viewBox="0 0 150 19" fill="none" xmlns="http://www.w3.org/2000/svg"><path d="M18.558 18h-3.846l-2.98-11.665L8.777 18H4.931L.067 1.012h4.05l2.98 12.276L10.33 1.012h2.827l3.21 12.276 2.954-12.276h4.075L18.557 18zm11.18 0H26.12V1.012h12.022v3.184h-8.405v3.59h8.227v3.184h-8.227V18zm15.569 0H41.69V1.012h12.022v3.184h-8.405v3.59h8.227v3.184h-8.227V18zm28.788 0h-3.846l-2.98-11.665L64.314 18H60.47L55.604 1.012h4.05l2.98 12.276 3.234-12.276h2.827l3.21 12.276 2.954-12.276h4.075L74.094 18zm20.471 0h-1.452V1.012h1.452V18zm18.813 0h-1.426L101.255 3.406V18h-1.451V1.012h1.477l10.646 14.39V1.012h1.452V18zm6.704 0h-1.452V1.012h10.774v1.324h-9.322v6.291h9.143v1.325h-9.143V18zm20.986.306c-2.462 0-4.457-.832-5.985-2.496-1.511-1.664-2.267-3.761-2.267-6.291 0-2.53.756-4.627 2.267-6.291 1.528-1.664 3.523-2.496 5.985-2.496 2.445 0 4.432.832 5.96 2.496 1.528 1.664 2.293 3.76 2.293 6.29 0 2.53-.765 4.628-2.293 6.292-1.528 1.664-3.515 2.496-5.96 2.496zm0-1.325c2.004 0 3.626-.696 4.865-2.088 1.24-1.41 1.859-3.2 1.859-5.374 0-2.19-.619-3.982-1.859-5.374-1.222-1.393-2.844-2.089-4.865-2.089-2.037 0-3.667.696-4.89 2.089-1.222 1.392-1.833 3.183-1.833 5.374 0 2.173.611 3.964 1.833 5.374 1.223 1.392 2.853 2.088 4.89 2.088z" fill="#000"/><path d="M83.5 5l3.897 12.75h-7.794L83.5 5z" fill="#D42A1F"/></svg>