<svg width="14" height="14" viewBox="0 0 14 14" fill="none" xmlns="http://www.w3.org/2000/svg"><path d="M7.19 0C3.353 0 1.313 2.459 1.313 5.14c0 1.243.694 2.794 1.807 3.286.169.076.26.044.298-.113.033-.12.18-.692.25-.963a.247.247 0 00-.06-.243c-.369-.427-.662-1.205-.662-1.935 0-1.87 1.487-3.685 4.017-3.685 2.187 0 3.718 1.42 3.718 3.453 0 2.297-1.216 3.887-2.795 3.887-.874 0-1.525-.687-1.319-1.535.25-1.011.739-2.098.739-2.827 0-.653-.37-1.194-1.124-1.194-.89 0-1.612.881-1.612 2.064 0 .752.266 1.26.266 1.26s-.88 3.555-1.043 4.22c-.277 1.124.037 2.945.064 3.102.017.086.114.113.168.043.087-.114 1.151-1.632 1.45-2.73.108-.4.553-2.021.553-2.021.293.53 1.14.973 2.04.973 2.682 0 4.62-2.357 4.62-5.28C12.677 2.096 10.277 0 7.19 0z" fill="#fff"/></svg>