<svg width="24" height="24" viewBox="0 0 24 24" fill="none" xmlns="http://www.w3.org/2000/svg"><path d="M23.435 9.267l-1.844-.4c-.16-.492-.36-.97-.594-1.432l1.021-1.589a.717.717 0 00-.096-.894L19.05 2.078a.717.717 0 00-.895-.096l-1.589 1.02c-.461-.234-.94-.432-1.431-.593L14.733.565A.717.717 0 0014.032 0H9.968a.717.717 0 00-.7.565l-.402 1.844c-.49.16-.97.36-1.431.594L5.846 1.982a.717.717 0 00-.894.096L2.078 4.952a.717.717 0 00-.096.894l1.02 1.589c-.234.461-.432.94-.593 1.431l-1.844.401A.717.717 0 000 9.968v4.064c0 .337.235.629.565.7l1.844.402c.16.49.36.97.594 1.431l-1.021 1.589a.717.717 0 00.096.895l2.874 2.873a.717.717 0 00.894.096l1.589-1.02c.461.234.94.432 1.431.593l.401 1.844c.072.33.364.565.701.565h4.064c.337 0 .63-.235.7-.565l.402-1.844c.49-.16.97-.36 1.431-.594l1.589 1.021a.717.717 0 00.895-.096l2.873-2.873a.717.717 0 00.096-.895l-1.02-1.589c.234-.461.432-.94.593-1.431l1.844-.401a.717.717 0 00.565-.701V9.968a.717.717 0 00-.565-.7zM16.303 12A4.308 4.308 0 0112 16.303 4.308 4.308 0 017.697 12 4.308 4.308 0 0112 7.697 4.308 4.308 0 0116.303 12z" fill="#000"/></svg>