<svg width="24" height="24" viewBox="0 0 24 24" fill="none" xmlns="http://www.w3.org/2000/svg"><circle cx="12" cy="12" r="12" fill="#000"/><g clip-path="url(#clip0)"><path d="M18.926 15.22a.97.97 0 00-.048-.091c-.243-.438-.707-.975-1.392-1.611l-.014-.015-.008-.007-.007-.007h-.007a8.398 8.398 0 01-.59-.598c-.151-.194-.185-.391-.103-.59.058-.151.277-.47.656-.955.2-.258.357-.464.474-.62.84-1.118 1.205-1.832 1.093-2.143l-.043-.073c-.03-.043-.105-.083-.226-.12a1.148 1.148 0 00-.467-.018l-2.099.014A.273.273 0 0016 8.39l-.095.022-.036.018-.029.022a.324.324 0 00-.08.077.5.5 0 00-.073.127 11.9 11.9 0 01-.78 1.64c-.18.302-.345.563-.496.784-.15.22-.277.384-.379.488a2.645 2.645 0 01-.277.252c-.082.063-.145.09-.19.08a5.53 5.53 0 01-.123-.03.484.484 0 01-.164-.178.798.798 0 01-.084-.284 3.15 3.15 0 01-.022-.645c.005-.151.008-.253.008-.306 0-.185.003-.386.01-.602l.019-.514c.005-.126.007-.26.007-.4a1.67 1.67 0 00-.026-.332 1.137 1.137 0 00-.076-.234.392.392 0 00-.15-.175.842.842 0 00-.244-.098 4.85 4.85 0 00-.984-.095c-.903-.01-1.484.049-1.742.175a.982.982 0 00-.277.219c-.087.107-.1.165-.036.175.291.043.498.148.62.313l.043.088c.034.063.068.175.102.335.034.16.056.338.066.532.024.355.024.659 0 .911-.025.253-.048.45-.07.59a1.18 1.18 0 01-.186.503.126.126 0 01-.036.037.546.546 0 01-.197.037c-.068 0-.15-.035-.248-.103a1.753 1.753 0 01-.302-.28 3.754 3.754 0 01-.354-.5 8.708 8.708 0 01-.408-.758l-.116-.211a18.12 18.12 0 01-.3-.594c-.126-.26-.237-.512-.335-.755a.48.48 0 00-.174-.233l-.037-.022a.773.773 0 00-.284-.11l-1.997.015c-.204 0-.343.047-.416.139l-.03.044A.236.236 0 005 8.67c0 .054.015.12.044.197.291.685.608 1.346.951 1.983.343.636.64 1.15.893 1.538.253.389.51.755.773 1.1.262.346.436.567.52.664.086.097.153.17.201.218l.182.175c.117.117.288.257.514.42.226.162.477.323.751.48.275.159.594.287.959.387.364.1.719.14 1.064.12h.838c.17-.014.299-.068.386-.16l.03-.037a.481.481 0 00.054-.134.738.738 0 00.026-.2c-.005-.21.01-.398.047-.566.036-.167.078-.294.124-.379a.931.931 0 01.28-.32.452.452 0 01.059-.026c.117-.039.254-.001.412.113.158.114.306.255.445.423.138.168.304.356.499.565.194.209.364.364.51.466l.146.088c.097.058.223.112.379.16a.815.815 0 00.408.037l1.866-.03c.185 0 .328-.03.43-.09.102-.061.163-.128.182-.201a.563.563 0 00.004-.248.915.915 0 00-.051-.193z" fill="#fff"/></g><defs><clipPath id="clip0"><path fill="#fff" d="M5 5h14v14H5z"/></clipPath></defs></svg>