<svg width="24" height="24" viewBox="0 0 24 24" fill="none" xmlns="http://www.w3.org/2000/svg"><circle cx="12" cy="12" r="12" fill="#000"/><path d="M8.876 9.915H6.528a.189.189 0 00-.188.189v7.54c0 .105.084.19.188.19h2.348a.189.189 0 00.188-.19v-7.54a.189.189 0 00-.188-.189zM7.703 6.167a1.55 1.55 0 00-1.55 1.547 1.55 1.55 0 003.097 0 1.55 1.55 0 00-1.547-1.547zm7.143 3.561c-.943 0-1.64.405-2.062.866v-.49a.189.189 0 00-.189-.189h-2.248a.189.189 0 00-.188.189v7.54c0 .105.084.19.188.19h2.342a.189.189 0 00.189-.19v-3.73c0-1.258.341-1.747 1.218-1.747.954 0 1.03.785 1.03 1.811v3.667c0 .104.084.188.189.188h2.343a.189.189 0 00.188-.188v-4.136c0-1.87-.356-3.781-3-3.781z" fill="#fff"/></svg>