<svg width="24" height="24" viewBox="0 0 24 24" fill="none" xmlns="http://www.w3.org/2000/svg"><path d="M16.944 24a7.137 7.137 0 01-3.036-.677 10.96 10.96 0 01-1.79.161c-6.346 0-11.509-5.1-11.509-11.37 0-.61.061-1.245.185-1.931A6.897 6.897 0 010 6.97C0 3.127 3.166 0 7.057 0a7.1 7.1 0 013.444.887c.478-.061 1.002-.09 1.617-.09 3.067 0 5.945 1.174 8.106 3.306a11.178 11.178 0 013.354 8.012c0 .803-.055 1.485-.17 2.115a6.8 6.8 0 01.592 2.8c0 3.843-3.165 6.97-7.056 6.97zm-2.74-2.634l.288.153a5.237 5.237 0 002.452.606c2.857 0 5.181-2.286 5.181-5.095a4.94 4.94 0 00-.535-2.256l-.153-.3.074-.33c.131-.583.192-1.227.192-2.029 0-5.207-4.3-9.443-9.585-9.443-.66 0-1.184.036-1.65.115l-.35.06-.3-.188a5.222 5.222 0 00-2.76-.784c-2.858 0-5.183 2.286-5.183 5.095 0 .907.245 1.796.71 2.573l.186.313-.073.358a9.36 9.36 0 00-.214 1.9c0 5.236 4.322 9.495 9.634 9.495.513 0 1.074-.058 1.766-.185l.32-.058zm3.843-6.794c0-.674-.133-1.254-.399-1.723a3.366 3.366 0 00-1.108-1.164c-.462-.299-1.029-.555-1.683-.764a23.515 23.515 0 00-2.175-.564 37.45 37.45 0 01-1.362-.332 4.398 4.398 0 01-.79-.306 1.802 1.802 0 01-.588-.441c-.132-.161-.239-.347-.239-.57 0-.363.242-.67.653-.937.426-.278.999-.393 1.704-.393.758 0 1.312.102 1.642.352.34.256.638.621.883 1.085.212.363.403.616.587.778.198.173.484.25.848.25.4 0 .741-.13 1.01-.408.268-.276.454-.594.454-.943 0-.363-.155-.738-.359-1.115-.202-.373-.523-.732-.956-1.07-.429-.333-.976-.603-1.623-.803-.646-.2-1.419-.3-2.297-.3-1.098 0-2.07.15-2.885.45-.827.304-1.471.749-1.91 1.318-.443.573-.704 1.24-.704 1.979 0 .775.25 1.433.672 1.959.416.517.984.93 1.69 1.229.69.29 1.556.548 2.577.766.75.157 1.358.307 1.806.445.427.132.782.326 1.05.575.255.237.394.54.394.927 0 .488-.254.889-.744 1.22-.5.34-1.167.475-1.98.475-.592 0-1.072-.047-1.429-.216a2.166 2.166 0 01-.825-.632 4.878 4.878 0 01-.566-.996c-.156-.364-.348-.647-.576-.838a1.324 1.324 0 00-.867-.318 1.47 1.47 0 00-1.027.397 1.23 1.23 0 00-.41.924c0 .573.212 1.168.632 1.766a4.586 4.586 0 001.618 1.428c.924.488 2.11.735 3.522.735 1.176 0 2.21-.181 3.073-.537.871-.36 1.543-.866 1.998-1.507a3.694 3.694 0 00.689-2.181z" fill="#6D8088"/></svg>