<svg width="14" height="14" viewBox="0 0 14 14" fill="none" xmlns="http://www.w3.org/2000/svg"><path fill-rule="evenodd" clip-rule="evenodd" d="M8.35 8.35C7.25 9.485 7.175 10.9 7.075 14c2.89 0 4.885-.01 5.915-1.01 1-1.03 1.01-3.12 1.01-5.915-3.1.1-4.515.175-5.65 1.275zM6.925 14c-2.89 0-4.885-.01-5.915-1.01C.01 11.96 0 9.87 0 7.075c3.1.1 4.515.175 5.65 1.275C6.75 9.485 6.825 10.9 6.925 14zM5.65 5.65C4.515 6.75 3.1 6.825 0 6.925 0 4.13.01 2.04 1.01 1.01 2.04.01 4.04 0 6.925 0c-.1 3.1-.175 4.515-1.275 5.65zM7.075 0c.095 3.1.175 4.515 1.275 5.65C9.485 6.75 10.9 6.825 14 6.925c0-2.795-.01-4.885-1.01-5.915C11.96.01 9.965 0 7.075 0z" fill="#fff"/></svg>