<svg width="287" height="126" viewBox="0 0 287 126" fill="none" xmlns="http://www.w3.org/2000/svg">
<path d="M208.545 20.4553C213.842 29.3632 219.469 37.9413 224.435 43.55C233.372 21.775 243.303 8.57802 252.241 0H239.662C229.731 3.62916 221.124 8.57802 213.842 14.8466C211.856 16.8261 210.2 18.8057 208.545 20.4553Z" fill="black"/>
<path d="M104.27 33.3223C105.594 22.4348 108.242 9.56779 112.876 0H43.692C63.5535 5.93863 82.7531 14.8466 97.3182 27.7136C99.6354 30.0231 101.953 31.6727 104.27 33.3223Z" fill="black"/>
<path d="M111.894 37.9412C120.501 42.8901 128.777 44.8696 136.059 43.5499C150.293 41.2405 157.576 28.3735 157.576 28.3735C157.907 28.0435 158.569 26.3939 159.893 24.7443C155.259 15.1765 149.631 5.93863 143.011 0H121.825C116.86 7.91817 113.549 23.4246 111.894 37.9412Z" fill="black"/>
<path d="M45.0177 50.8085C56.9346 92.049 64.8793 110.195 81.0996 108.545C85.7339 107.885 89.3752 103.926 92.3545 98.3175C86.727 85.7804 80.7685 70.6039 74.148 53.4479C64.2172 27.3839 40.3833 12.5373 14.8943 4.61914C13.9012 4.94906 13.2392 5.60891 12.2461 6.26876C26.4802 15.5066 39.0592 29.6934 45.0177 50.8085Z" fill="black"/>
<path d="M187.363 11.5474C180.742 11.5474 173.46 19.1356 168.825 25.4042C173.791 36.6216 176.77 46.1894 176.77 47.1791C178.425 52.128 180.411 57.0769 182.728 61.6958C182.728 60.706 183.06 59.7162 183.06 58.7265C183.06 57.7367 184.384 38.6011 198.618 20.1254C195.307 14.5167 191.335 11.5474 187.363 11.5474Z" fill="black"/>
<path d="M82.0945 116.464C58.2606 119.103 48.9919 93.039 37.406 53.1182C31.7785 33.6527 19.8616 20.4557 6.62053 11.8777C2.64821 17.1565 0 23.7549 0 30.6833V95.0185C0 111.845 13.9031 125.701 30.7854 125.701H106.921C103.611 120.423 99.9699 114.154 96.6597 106.896C93.0184 112.175 88.053 115.804 82.0945 116.464Z" fill="black"/>
<path d="M43.3617 7.91821C61.8992 18.4758 74.8092 32.6625 81.4297 50.1485C86.7261 64.3352 91.6915 76.8723 96.3259 87.4299C100.298 74.5628 101.953 59.0564 102.284 51.1382C102.284 49.1587 102.615 45.8595 102.946 41.9004C99.6362 39.9208 95.6638 36.9515 91.6915 33.3224C78.7815 21.775 61.5681 13.8568 43.3617 7.91821Z" fill="black"/>
<path d="M191.663 58.7266C191.663 60.7062 191.001 65.3251 190.339 71.5937C192.987 74.8929 195.966 76.8725 198.945 76.8725C202.918 77.2024 210.862 73.9031 221.124 51.4683C215.497 45.8596 209.869 37.9414 203.58 27.054C192.656 42.8903 191.663 58.7266 191.663 58.7266Z" fill="black"/>
<path d="M187.359 3.62916C193.979 3.62916 199.607 6.9284 204.241 13.5269C205.565 12.2072 206.889 10.8875 208.545 9.23787C212.517 5.60871 216.82 2.63939 221.455 0H153.925C158.229 5.27878 162.201 11.2174 165.18 17.486C170.477 10.8875 178.421 3.62916 187.359 3.62916Z" fill="black"/>
<path d="M168.821 125.701C175.442 110.854 179.414 90.3988 181.731 74.2325C174.78 64.9946 170.476 53.1174 169.483 49.4882C168.159 45.5291 166.504 39.9204 163.856 33.6519C161.539 37.281 152.601 49.1583 137.374 51.7977C129.098 53.1174 120.16 51.4677 110.892 46.8488C110.892 48.4984 110.561 50.478 110.561 52.1276C110.23 56.0867 108.906 80.831 100.961 98.3169C106.257 109.534 111.223 118.772 116.519 125.701H125.457H168.821Z" fill="black"/>
<path d="M256.542 41.9006C250.253 53.4479 243.632 59.0566 236.35 59.0566C236.35 59.0566 236.35 59.0566 236.019 59.0566C233.039 59.0566 230.391 58.0668 227.412 56.4172C218.474 75.8827 209.206 85.1206 198.613 84.4607C194.971 84.4607 191.661 82.8111 188.682 80.8316C186.696 94.6884 183.055 111.514 177.427 125.701H286.997V30.6831C286.997 21.4453 282.693 13.1972 276.073 7.25854C272.763 11.8775 268.79 19.4657 262.501 31.343L256.542 41.9006Z" fill="black"/>
<path d="M231.055 48.499C231.055 48.8289 230.724 49.1589 230.724 49.4888C232.71 50.8085 234.365 51.4683 236.02 51.4683C240.324 51.4683 244.627 47.1793 249.262 38.6013L254.889 28.0437C261.178 16.1665 265.482 8.24832 269.454 2.96953C267.468 2.30969 265.813 1.64984 264.158 0.98999C254.558 7.58847 242.31 21.1153 231.055 48.499Z" fill="black"/>
<path fill-rule="evenodd" clip-rule="evenodd" d="M125.459 125.701H30.7857C13.9033 125.701 0.000244141 111.845 0.000244141 95.0186V30.6834C0.000244141 13.8573 13.9033 0.000488281 30.7857 0.000488281H256.215C273.097 0.000488281 287 13.8573 287 30.6834V125.701H125.459Z" fill="#E30000"/>
<path d="M254.89 28.0435L249.263 38.6011C244.629 47.1791 240.325 51.4681 236.022 51.4681C234.367 51.4681 232.712 50.8083 230.726 49.4886C230.726 49.1587 231.057 48.8287 231.057 48.4988C242.312 21.1151 254.559 7.58825 264.159 0.989772C261.511 0.329924 259.194 0 256.215 0H252.242C243.305 8.57802 233.705 21.775 224.436 43.5499C219.471 37.9412 213.843 29.3632 208.547 20.4553C210.202 18.8057 211.857 16.8261 213.843 14.8466C221.126 8.57802 229.732 3.62916 239.663 0H221.457C216.822 2.63939 212.519 5.60871 208.547 9.23787C206.892 10.8875 205.568 12.2072 204.243 13.5269C199.609 6.9284 193.982 3.62916 187.692 3.62916H187.361C178.423 3.62916 170.479 10.8875 165.182 17.486C161.872 11.2174 158.231 5.27878 153.927 0H143.004C149.624 5.93863 155.252 15.1765 159.886 24.7443C158.562 26.3939 157.9 28.0435 157.569 28.3735C157.569 28.3735 150.286 41.2405 136.052 43.5499C128.769 44.8696 120.494 42.8901 111.887 37.9412C113.542 23.4246 116.853 7.91817 121.818 0H112.88C108.246 9.56779 105.598 22.4348 104.274 33.3223C101.956 31.6727 99.6392 30.0231 97.322 27.7136C82.7568 14.8466 63.5573 5.93863 43.6957 0H30.7857C24.8272 0 19.5308 1.64962 14.8964 4.61893C40.3855 12.5371 64.2194 27.3837 74.1501 53.4477C80.7707 70.6037 86.7291 85.7802 92.3566 98.3173C89.3774 103.926 85.7361 107.885 81.1017 108.545C64.8814 110.195 56.9368 92.0488 45.0198 50.8083C39.0614 29.6931 26.4824 15.5064 12.2482 6.26855C10.2621 7.91817 8.27592 9.89771 6.62079 11.8773C20.1929 20.4553 31.7788 33.6522 37.4062 53.1177C48.9922 93.0385 58.2609 119.103 82.0948 116.463C88.0532 115.803 93.0186 112.174 96.6599 106.895C99.9702 114.154 103.611 120.422 106.922 125.701H116.522C111.556 118.773 106.26 109.535 100.963 98.3173C108.908 80.8313 110.232 56.0871 110.563 52.128C110.563 50.4783 110.894 48.4988 110.894 46.8492C120.163 51.4681 129.101 53.1177 137.376 51.798C152.603 49.1587 161.541 37.2814 163.858 33.6522C166.506 39.9208 168.162 45.5295 169.486 49.4886C170.479 53.1177 174.782 64.995 181.734 74.2329C179.748 90.3991 175.444 110.854 168.824 125.701H177.43C183.389 111.514 186.699 94.6881 188.685 80.8313C191.664 82.8109 194.975 84.4605 198.616 84.4605C209.209 85.1204 218.478 75.8825 227.415 56.417C230.395 58.0666 233.043 59.0564 236.022 59.0564C236.353 59.0564 236.353 59.0564 236.353 59.0564C243.636 59.0564 250.256 53.4477 256.546 41.9003L262.504 31.3428C268.794 19.4655 272.766 12.2072 276.076 7.25832C274.09 5.60871 271.773 3.95909 269.125 2.96931C265.483 8.2481 261.18 16.1663 254.89 28.0435ZM102.287 51.1382C101.956 59.0564 100.301 74.5628 96.3289 87.4298C91.6945 76.8723 86.7291 64.3352 81.4327 50.1484C74.8122 32.6625 61.9022 18.4757 43.3647 7.91817C61.5712 13.8568 78.7845 21.775 91.6945 33.3223C95.6668 36.9515 99.6392 39.9208 102.949 41.9003C102.618 45.8594 102.287 49.1587 102.287 51.1382ZM183.058 58.7264C183.058 59.7162 182.727 60.706 182.727 61.6958C180.41 57.0768 178.423 52.128 176.768 47.1791C176.768 46.1893 173.789 36.6215 168.824 25.4041C173.458 19.1356 180.741 11.5473 187.361 11.5473C191.333 11.5473 195.306 14.5166 198.616 20.1254C184.382 38.6011 183.058 57.7367 183.058 58.7264ZM198.947 76.8723C195.968 76.8723 192.989 74.8927 190.34 71.5935C191.002 65.3249 191.664 60.706 191.664 58.7264C191.664 58.7264 192.658 42.8901 203.581 27.0538C209.871 37.9412 215.498 45.8594 221.126 51.4681C210.864 73.9029 202.919 77.2022 198.947 76.8723Z" fill="#CE1111"/>
<path fill-rule="evenodd" clip-rule="evenodd" d="M32.7693 101.616C32.7693 102.276 32.4382 102.606 31.7762 102.606H29.79C29.128 102.606 28.7969 102.276 28.7969 101.616V91.7185C28.7969 91.3886 29.128 90.7288 29.79 90.7288H31.7762C32.4382 90.7288 32.7693 91.0587 32.7693 91.7185V101.616Z" fill="#FFFFFE"/>
<path fill-rule="evenodd" clip-rule="evenodd" d="M41.0512 101.617C41.0512 102.277 40.7201 102.607 40.0581 102.607H38.0719C37.4099 102.607 37.0789 102.277 37.0789 101.617V94.0286C37.0789 93.3687 37.4099 93.0388 38.0719 93.0388H40.0581C40.7201 93.0388 41.0512 93.3687 41.0512 94.0286V101.617Z" fill="#FFFFFE"/>
<path fill-rule="evenodd" clip-rule="evenodd" d="M49.6555 101.617C49.6555 102.277 49.3245 102.607 48.6625 102.607H46.6763C46.0143 102.607 45.6832 102.277 45.6832 101.617V95.3484C45.6832 94.6886 46.0143 94.3586 46.6763 94.3586H48.6625C49.3245 94.3586 49.6555 94.6886 49.6555 95.3484V101.617Z" fill="#FFFFFE"/>
<path fill-rule="evenodd" clip-rule="evenodd" d="M58.2649 101.616C58.2649 102.276 57.9339 102.606 57.2718 102.606H55.2857C54.6236 102.606 54.2926 102.276 54.2926 101.616V90.7288C54.2926 90.0689 54.6236 89.739 55.2857 89.739H57.2718C57.9339 89.739 58.2649 90.0689 58.2649 90.7288V101.616Z" fill="#FFFFFE"/>
<path fill-rule="evenodd" clip-rule="evenodd" d="M66.539 101.617C66.539 102.277 66.208 102.607 65.5459 102.607H63.5598C62.8977 102.607 62.5667 102.277 62.5667 101.617V96.9983C62.5667 96.3385 62.8977 96.0085 63.5598 96.0085H65.5459C66.208 96.0085 66.539 96.3385 66.539 96.9983V101.617Z" fill="#FFFFFE"/>
<path fill-rule="evenodd" clip-rule="evenodd" d="M75.1433 101.617C75.1433 102.276 74.8123 102.606 74.1503 102.606H72.1641C71.502 102.606 71.171 102.276 71.171 101.617V92.3787C71.171 91.7188 71.502 91.3889 72.1641 91.3889H74.1503C74.8123 91.3889 75.1433 91.7188 75.1433 92.3787V101.617Z" fill="#FFFFFE"/>
<path fill-rule="evenodd" clip-rule="evenodd" d="M83.7475 101.616C83.7475 102.276 83.4165 102.606 82.7544 102.606H80.7683C80.1062 102.606 79.7752 102.276 79.7752 101.616V89.0794C79.7752 88.4195 80.1062 88.0896 80.7683 88.0896H82.7544C83.4165 88.0896 83.7475 88.4195 83.7475 89.0794V101.616Z" fill="#FFFFFE"/>
<path fill-rule="evenodd" clip-rule="evenodd" d="M56.2754 36.2914L64.5511 60.7058H47.9998L56.2754 36.2914ZM29.4623 79.5114C30.1243 79.8414 38.4 83.1406 39.062 83.1406C39.7241 83.1406 40.0551 83.1406 40.3861 82.4807C40.3861 82.1508 44.0274 72.2531 44.3585 71.2633H68.5234C68.8544 72.2531 72.4957 82.1508 72.4957 82.4807C72.8267 82.8107 73.1577 83.1406 73.8198 83.1406C74.1508 82.8107 82.7575 79.8414 83.4196 79.5114C84.0816 79.1815 84.0816 78.5217 84.0816 78.1917C83.7506 76.872 67.1993 32.3323 66.5372 30.3528C64.8821 25.7338 62.8959 21.4448 56.6064 21.4448C50.3169 21.4448 48.3308 26.0638 46.6756 30.3528C46.0136 32.6622 29.7933 76.5421 29.1313 78.1917C28.8002 78.8516 28.8002 79.5114 29.4623 79.5114Z" fill="#FFFFFE"/>
<path d="M104.933 19.136V105.906" stroke="#F2F1F0" stroke-width="1.64943"/>
<path fill-rule="evenodd" clip-rule="evenodd" d="M131.751 52.1279H137.709L135.392 45.5294C135.061 45.1995 135.061 44.5396 134.73 43.5499C134.399 44.8696 134.399 45.1995 134.068 45.8593L131.751 52.1279ZM122.482 60.7059L131.42 37.9412H138.04L146.978 60.7059H140.688L139.364 57.0767H130.096L128.771 60.7059H122.482Z" fill="#FFFFFE"/>
<path fill-rule="evenodd" clip-rule="evenodd" d="M169.485 37.9412V60.7059H163.526V43.5499H158.561C157.899 52.7877 156.575 61.0358 150.285 61.0358C149.292 61.0358 148.63 61.0358 147.637 60.7059V55.4271C147.968 55.4271 148.63 55.757 149.292 55.4271C152.934 55.0972 152.934 44.8696 153.265 37.9412H169.485Z" fill="#FFFFFE"/>
<path fill-rule="evenodd" clip-rule="evenodd" d="M179.749 55.4271H183.059C184.714 55.4271 186.369 54.7673 186.369 52.7877C186.369 50.8082 184.714 50.1483 183.059 50.1483H179.749V55.4271ZM173.79 60.7059V37.9412H179.749V45.1995H182.728C188.356 45.1995 192.659 46.8491 192.659 53.1177C192.659 59.0563 188.356 61.0358 182.728 61.0358H173.79V60.7059Z" fill="#FFFFFE"/>
<path fill-rule="evenodd" clip-rule="evenodd" d="M210.532 54.1072C214.504 53.7773 215.497 51.1379 215.497 49.1584C215.497 47.1788 214.504 44.5394 210.532 44.2095V54.1072ZM204.904 54.1072V44.2095C200.932 44.5394 199.939 47.1788 199.939 49.1584C199.939 51.4678 200.601 53.7773 204.904 54.1072ZM204.904 62.0254V59.386C198.284 59.0561 193.98 55.4269 193.98 49.4883C193.98 43.5497 198.284 39.9205 204.904 39.5906V36.9512H210.532V39.5906C217.152 39.9205 221.456 43.5497 221.456 49.4883C221.456 55.4269 217.152 59.0561 210.532 59.386V62.0254H204.904Z" fill="#FFFFFE"/>
<path fill-rule="evenodd" clip-rule="evenodd" d="M230.06 52.1279H236.019L233.701 45.5294C233.37 44.8696 233.37 44.5396 233.039 43.2199C232.708 44.5396 232.708 44.8696 232.377 45.5294L230.06 52.1279ZM220.791 60.7059L229.729 37.9412H236.35L245.287 60.7059H238.998L237.674 57.0767H228.405L227.081 60.7059H220.791Z" fill="#FFFFFE"/>
<path fill-rule="evenodd" clip-rule="evenodd" d="M140.025 86.4396C143.997 86.1097 144.99 83.4703 144.99 81.4907C144.99 79.5112 143.997 76.8718 140.025 76.5419V86.4396ZM134.066 86.4396V76.5419C130.094 76.8718 129.101 79.5112 129.101 81.4907C129.101 83.8002 130.094 86.1097 134.066 86.4396ZM134.066 94.0278V91.3884C127.446 91.0585 123.142 87.4294 123.142 81.4907C123.142 75.5521 127.446 71.9229 134.066 71.593V68.9536H139.694V71.593C146.314 71.9229 150.617 75.5521 150.617 81.4907C150.617 87.4294 146.314 91.0585 139.694 91.3884V94.0278H134.066Z" fill="#FFFFFE"/>
<path fill-rule="evenodd" clip-rule="evenodd" d="M164.52 75.223C160.548 75.223 158.561 77.8624 158.561 81.4915C158.561 85.1207 160.548 87.7601 164.52 87.7601C168.492 87.7601 170.478 85.1207 170.478 81.4915C170.478 77.8624 168.492 75.223 164.52 75.223ZM164.52 69.6143C172.796 69.6143 176.768 75.223 176.768 81.4915C176.768 87.7601 172.796 93.3688 164.52 93.3688C156.244 93.3688 152.272 87.7601 152.272 81.4915C152.272 75.223 156.244 69.6143 164.52 69.6143Z" fill="#FFFFFE"/>
<path fill-rule="evenodd" clip-rule="evenodd" d="M189.02 75.553H185.709V80.8317H189.02C190.675 80.8317 192.33 80.1719 192.33 78.1923C192.33 76.2128 191.006 75.553 189.02 75.553ZM188.689 70.2742C194.316 70.2742 198.619 72.2537 198.619 78.1923C198.619 84.131 194.316 85.7806 188.689 86.1105H185.709V93.3688H179.751V70.2742H188.689Z" fill="#FFFFFE"/>
<path fill-rule="evenodd" clip-rule="evenodd" d="M217.817 70.2742V75.553H207.555V78.8522H216.824V84.131H207.555V87.7601H218.148V93.0389H201.597V70.2742H217.817Z" fill="#FFFFFE"/>
<path fill-rule="evenodd" clip-rule="evenodd" d="M221.457 93.0389V70.2742H227.746V78.8522H230.395L235.691 70.2742H242.312L235.029 81.1617L242.643 93.0389H236.022L230.395 84.131H227.746V93.0389H221.457Z" fill="#FFFFFE"/>
<path fill-rule="evenodd" clip-rule="evenodd" d="M254.56 69.6143C256.877 69.6143 259.194 69.9442 261.18 70.934V76.5427C259.856 75.223 257.539 74.5631 255.553 74.5631C251.911 74.5631 248.27 76.5427 248.27 81.4915C248.27 85.7805 251.911 87.7601 255.222 87.7601C257.539 87.7601 259.856 87.1002 260.849 85.7805V91.7192C258.863 92.7089 256.546 93.0389 254.229 93.0389C247.939 93.0389 241.65 89.7396 241.65 81.4915C242.312 73.2434 248.601 69.6143 254.56 69.6143Z" fill="#FFFFFE"/>
</svg>
