<svg width="556" height="140" viewBox="0 0 556 140" fill="red" xmlns="http://www.w3.org/2000/svg">
<mask id="path-1-inside-1" fill="white">
<path fill-rule="evenodd" clip-rule="evenodd" d="M21 0C15.4771 0 11 4.47716 11 10V12.0341L0.950966 20.2249C0.46003 20.625 0.460029 21.375 0.950966 21.7751L11 29.9659V130C11 135.523 15.4771 140 21 140H546C551.523 140 556 135.523 556 130V10C556 4.47715 551.523 0 546 0H21Z"/>
</mask>
<path d="M11 12.0341L11.6318 12.8092L12 12.5091V12.0341H11ZM0.950966 20.2249L0.319168 19.4497H0.319168L0.950966 20.2249ZM0.950966 21.7751L0.319168 22.5503H0.319168L0.950966 21.7751ZM11 29.9659H12V29.4909L11.6318 29.1908L11 29.9659ZM12 10C12 5.02944 16.0294 1 21 1V-1C14.9248 -1 9.99998 3.92487 9.99998 10H12ZM12 12.0341V10H9.99998V12.0341H12ZM1.58276 21L11.6318 12.8092L10.3682 11.259L0.319168 19.4497L1.58276 21ZM1.58276 21H1.58276L0.319168 19.4497C-0.662704 20.25 -0.662705 21.75 0.319168 22.5503L1.58276 21ZM11.6318 29.1908L1.58276 21L0.319168 22.5503L10.3682 30.741L11.6318 29.1908ZM12 130V29.9659H9.99998V130H12ZM21 139C16.0294 139 12 134.971 12 130H9.99998C9.99998 136.075 14.9249 141 21 141V139ZM546 139H21V141H546V139ZM555 130C555 134.971 550.971 139 546 139V141C552.075 141 557 136.075 557 130H555ZM555 10V130H557V10H555ZM546 1C550.971 1 555 5.02944 555 10H557C557 3.92487 552.075 -1 546 -1V1ZM21 1H546V-1H21V1Z" fill="#D3DFE3" mask="url(#path-1-inside-1)"/>
</svg>
