<svg width="14" height="14" viewBox="0 0 14 14" fill="none" xmlns="http://www.w3.org/2000/svg">
<path d="M9.91614 1.16905L8.40325 1.16663C6.70357 1.16663 5.60516 2.29357 5.60516 4.03781V5.36162H4.08402C3.95257 5.36162 3.84613 5.46818 3.84613 5.59963V7.51767C3.84613 7.64912 3.95269 7.75556 4.08402 7.75556H5.60516V12.5954C5.60516 12.7268 5.7116 12.8333 5.84305 12.8333H7.82771C7.95915 12.8333 8.06559 12.7267 8.06559 12.5954V7.75556H9.84417C9.97561 7.75556 10.0821 7.64912 10.0821 7.51767L10.0828 5.59963C10.0828 5.53651 10.0577 5.47607 10.0131 5.43141C9.96857 5.38674 9.90789 5.36162 9.84477 5.36162H8.06559V4.23941C8.06559 3.70003 8.19413 3.42621 8.89674 3.42621L9.9159 3.42585C10.0472 3.42585 10.1537 3.31928 10.1537 3.18796V1.40694C10.1537 1.27574 10.0473 1.1693 9.91614 1.16905Z" fill="white"/>
</svg>
