<svg width="164" height="40" viewBox="0 0 164 40" fill="none" xmlns="http://www.w3.org/2000/svg">
<path d="M12.652 21.6804C12.652 28.8254 13.0701 35.8059 13.0701 36.7095C13.0701 38.2682 11.062 38.023 10.1367 37.5292C4.10198 33.9986 0 27.512 0 20.0377C0 8.95231 9.1292 0 20.4413 0C26.4726 0 31.918 2.54629 35.6875 6.65125C37.0274 8.1293 35.6875 8.53913 35.1838 8.53913H13.1489C13.1489 8.53913 12.652 15.2744 12.652 21.6804Z" fill="#DB1414"/>
<path d="M20.4413 30.0549V38.5134C20.4413 39.5816 21.4454 40.072 21.9491 39.9914C32.5073 39.2524 40.8826 30.6293 40.8826 20.0343C40.8826 18.9661 40.797 17.8979 40.6325 16.9136C40.5468 16.5038 39.8785 15.6808 39.0424 15.6808H20.3591V22.8258H30.9173C30.9173 22.8258 31.0029 24.0587 30.4992 26.1951C29.9954 28.4122 29.4095 29.3158 29.4095 29.3158C29.4095 29.3158 25.7187 29.8936 20.4413 30.0549Z" fill="#DB1414"/>
<path d="M54.2107 14.7562H63.9293V16.8087H56.4724V20.3392H63.0897V22.3917H56.4724V27.6455H54.2107V14.7562Z" fill="#1E1E1E"/>
<path d="M65.6051 14.7562H67.8668V27.5683H65.6051V14.7562Z" fill="#1E1E1E"/>
<path d="M70.6323 14.7562H76.4957C78.0035 14.7562 79.1755 15.166 79.9329 15.9051C80.5189 16.4795 80.8547 17.1379 80.8547 18.0415C80.8547 19.6002 79.9329 20.4232 79.011 20.917C80.5189 21.4108 81.6086 22.3111 81.6086 24.0377C81.6086 26.3388 79.6827 27.5683 76.7493 27.5683H70.718V14.7562H70.6323ZM76.0776 20.178C77.5855 20.178 78.5073 19.6036 78.5073 18.4514C78.5073 17.4671 77.6711 16.8087 76.2455 16.8087H72.8941V20.2586H76.0776V20.178ZM76.7493 25.5998C78.3394 25.5998 79.2612 25.0254 79.2612 23.8731C79.2612 22.8049 78.425 22.1465 76.5814 22.1465H72.8975V25.677H76.7527L76.7493 25.5998Z" fill="#1E1E1E"/>
<path d="M82.7806 21.1623C82.7806 17.5511 85.6283 14.511 89.6481 14.511C93.6712 14.511 96.4333 17.4671 96.4333 21.0816C96.4333 24.6928 93.5855 27.7329 89.5658 27.7329C85.5426 27.8169 82.7806 24.7768 82.7806 21.1623ZM94.0893 21.1623C94.0893 18.616 92.2456 16.5635 89.6481 16.5635C87.0505 16.5635 85.2068 18.616 85.2068 21.0816C85.2068 23.5439 87.0505 25.6804 89.6481 25.6804C92.2456 25.6804 94.0893 23.7085 94.0893 21.1623Z" fill="#1E1E1E"/>
<path d="M97.9445 21.1622C97.9445 17.6317 100.542 14.511 104.48 14.511C106.659 14.511 108.081 15.1694 109.339 16.2376L108.417 17.3059C107.413 16.4022 106.323 15.8278 104.394 15.8278C101.46 15.8278 99.4523 18.2095 99.4523 21.0816C99.4523 24.1183 101.46 26.4194 104.647 26.4194C106.155 26.4194 107.495 25.845 108.417 25.106V21.9046H104.394V20.5912H109.839V25.6837C108.582 26.752 106.824 27.6522 104.562 27.6522C100.456 27.8168 97.9445 24.8574 97.9445 21.1622Z" fill="#1E1E1E"/>
<path d="M112.519 14.7562H118.132C119.722 14.7562 121.066 15.25 121.816 16.0697C122.488 16.7281 122.82 17.6284 122.82 18.616C122.82 20.7524 121.312 21.9853 119.301 22.3951L123.324 27.6489H121.48L117.711 22.6369H114.027V27.6489H112.519V14.7562ZM118.05 21.2462C119.976 21.2462 121.401 20.262 121.401 18.6193C121.401 17.0606 120.144 16.073 118.05 16.073H114.027V21.2462H118.05Z" fill="#1E1E1E"/>
<path d="M124.499 21.1622C124.499 17.5511 127.179 14.511 131.202 14.511C135.226 14.511 137.905 17.5477 137.905 21.0816C137.905 24.6121 135.226 27.7328 131.202 27.7328C127.179 27.8168 124.499 24.6928 124.499 21.1622ZM136.394 21.1622C136.394 18.2061 134.215 15.8244 131.199 15.8244C128.183 15.8244 126.086 18.2061 126.086 21.0816C126.086 23.9571 128.266 26.4194 131.281 26.4194C134.218 26.4194 136.394 24.1183 136.394 21.1622Z" fill="#1E1E1E"/>
<path d="M140.081 22.2305V14.7562H141.589V22.1465C141.589 24.938 143.097 26.5001 145.612 26.5001C148.042 26.5001 149.55 25.106 149.55 22.2305V14.7562H151.058V22.1465C151.058 25.9256 148.878 27.8102 145.612 27.8102C142.261 27.8169 140.081 25.8417 140.081 22.2305Z" fill="#1E1E1E"/>
<path d="M153.905 14.7562H158.847C161.78 14.7562 163.706 16.3149 163.706 18.8612C163.706 21.6527 161.359 23.0501 158.593 23.0501H155.41V27.5683H153.902L153.905 14.7562ZM158.597 21.7367C160.776 21.7367 162.198 20.5878 162.198 18.9452C162.198 17.1379 160.776 16.1537 158.679 16.1537H155.327V21.8173H158.593V21.7367H158.597Z" fill="#1E1E1E"/>
</svg>
