<svg width="150" height="19" viewBox="0 0 150 19" fill="none" xmlns="http://www.w3.org/2000/svg">
<path d="M18.5576 18H14.7117L11.7318 6.33502L8.77735 18H4.93147L0.0668207 1.01192H4.11645L7.09637 13.2882L10.331 1.01192H13.1581L16.3672 13.2882L19.3217 1.01192H23.3968L18.5576 18ZM29.7379 18H26.1212V1.01192H38.1428V4.19559H29.7379V7.78678H37.9645V10.9704H29.7379V18ZM45.307 18H41.6904V1.01192H53.7119V4.19559H45.307V7.78678H53.5336V10.9704H45.307V18ZM74.0948 18H70.2489L67.269 6.33502L64.3145 18H60.4687L55.604 1.01192H59.6536L62.6336 13.2882L65.8682 1.01192H68.6953L71.9044 13.2882L74.8589 1.01192H78.934L74.0948 18Z" fill="black"/>
<path d="M94.5657 18H93.114V1.01192H94.5657V18ZM113.379 18H111.953L101.255 3.40604V18H99.8037V1.01192H101.281L111.927 15.4021V1.01192H113.379V18ZM120.083 18H118.631V1.01192H129.405V2.33633H120.083V8.62726H129.226V9.95167H120.083V18ZM141.069 18.3056C138.607 18.3056 136.612 17.4736 135.084 15.8096C133.573 14.1456 132.817 12.0487 132.817 9.51869C132.817 6.98873 133.573 4.89175 135.084 3.22775C136.612 1.56375 138.607 0.731755 141.069 0.731755C143.514 0.731755 145.501 1.56375 147.029 3.22775C148.557 4.89175 149.322 6.98873 149.322 9.51869C149.322 12.0487 148.557 14.1456 147.029 15.8096C145.501 17.4736 143.514 18.3056 141.069 18.3056ZM141.069 16.9812C143.073 16.9812 144.695 16.2851 145.934 14.8927C147.174 13.4834 147.793 11.6921 147.793 9.51869C147.793 7.32833 147.174 5.53698 145.934 4.14465C144.712 2.75233 143.09 2.05616 141.069 2.05616C139.032 2.05616 137.402 2.75233 136.179 4.14465C134.957 5.53698 134.346 7.32833 134.346 9.51869C134.346 11.6921 134.957 13.4834 136.179 14.8927C137.402 16.2851 139.032 16.9812 141.069 16.9812Z" fill="black"/>
<path d="M83.5 5L87.3971 17.75H79.6029L83.5 5Z" fill="#D42A1F"/>
</svg>
