<svg width="14" height="14" viewBox="0 0 14 14" fill="none" xmlns="http://www.w3.org/2000/svg">
<path d="M7.19031 0C3.35326 0 1.31267 2.45886 1.31267 5.13998C1.31267 6.38341 2.00745 7.93398 3.11962 8.42575C3.28851 8.50188 3.38039 8.46951 3.41801 8.31287C3.45126 8.19387 3.5974 7.62072 3.66827 7.35033C3.69015 7.2637 3.67877 7.18845 3.60877 7.10707C3.2395 6.68005 2.94637 5.90214 2.94637 5.17236C2.94637 3.3024 4.43306 1.48669 6.9628 1.48669C9.1504 1.48669 10.6808 2.90776 10.6808 4.94047C10.6808 7.23745 9.46541 8.82652 7.88596 8.82652C7.0118 8.82652 6.36077 8.14049 6.56728 7.2917C6.81667 6.28103 7.30581 5.19423 7.30581 4.46533C7.30581 3.81167 6.93655 3.2709 6.18226 3.2709C5.29235 3.2709 4.57044 4.15206 4.57044 5.33512C4.57044 6.08677 4.83645 6.5943 4.83645 6.5943C4.83645 6.5943 3.95616 10.1505 3.79253 10.8146C3.51602 11.939 3.83016 13.76 3.85728 13.9166C3.87391 14.0033 3.97104 14.0304 4.02529 13.9595C4.11192 13.8457 5.17597 12.3276 5.47435 11.2303C5.58286 10.8304 6.02825 9.20891 6.02825 9.20891C6.32139 9.73831 7.16756 10.182 8.06885 10.182C10.75 10.182 12.6873 7.82548 12.6873 4.9011C12.6777 2.09747 10.2783 0 7.19031 0Z" fill="white"/>
</svg>
