<svg width="24" height="24" viewBox="0 0 24 24" fill="none" xmlns="http://www.w3.org/2000/svg">
<circle cx="12" cy="12" r="12" fill="black"/>
<g clip-path="url(#clip0)">
<path d="M18.9258 15.2199C18.9088 15.1834 18.893 15.1531 18.8783 15.1288C18.6354 14.6913 18.1713 14.1544 17.4861 13.5178L17.4716 13.5032L17.4644 13.496L17.457 13.4887H17.4497C17.1387 13.1923 16.9418 12.993 16.8593 12.8909C16.7085 12.6965 16.6747 12.4998 16.7571 12.3004C16.8154 12.1498 17.0342 11.8316 17.4132 11.3456C17.6125 11.088 17.7703 10.8816 17.8869 10.7261C18.7277 9.60832 19.0922 8.89407 18.9803 8.58303L18.9369 8.51035C18.9077 8.46659 18.8324 8.42655 18.7111 8.39005C18.5894 8.35361 18.434 8.34759 18.2444 8.37187L16.1452 8.38637C16.1112 8.37432 16.0626 8.37544 15.9993 8.39005C15.9362 8.40465 15.9045 8.41198 15.9045 8.41198L15.868 8.43023L15.839 8.45216C15.8147 8.46666 15.788 8.49217 15.7588 8.52863C15.7298 8.56496 15.7055 8.60759 15.6861 8.65618C15.4575 9.24418 15.1977 9.79087 14.906 10.2962C14.7262 10.5976 14.5611 10.8587 14.4103 11.0798C14.2597 11.3009 14.1333 11.4637 14.0314 11.5681C13.9292 11.6726 13.8371 11.7564 13.7543 11.8196C13.6717 11.8829 13.6086 11.9096 13.5649 11.8998C13.5211 11.89 13.4799 11.8803 13.4408 11.8706C13.3728 11.8269 13.3182 11.7674 13.2769 11.692C13.2355 11.6167 13.2076 11.5219 13.1931 11.4077C13.1786 11.2935 13.17 11.1952 13.1675 11.1125C13.1653 11.03 13.1663 10.9132 13.1712 10.7626C13.1763 10.6119 13.1786 10.5099 13.1786 10.4565C13.1786 10.2718 13.1822 10.0713 13.1894 9.85508C13.1967 9.63883 13.2027 9.46749 13.2077 9.34127C13.2126 9.21492 13.2149 9.08124 13.2149 8.94031C13.2149 8.79938 13.2063 8.68886 13.1894 8.60864C13.1726 8.52852 13.1469 8.45076 13.113 8.37537C13.079 8.30005 13.0291 8.24179 12.9636 8.20043C12.898 8.15912 12.8165 8.12634 12.7194 8.10198C12.4619 8.0437 12.1339 8.01216 11.7353 8.00726C10.8315 7.99756 10.2507 8.05592 9.99318 8.18228C9.89113 8.23566 9.79879 8.3086 9.71622 8.40087C9.62873 8.50782 9.61652 8.56618 9.67969 8.57578C9.9713 8.61947 10.1777 8.72396 10.2992 8.88917L10.343 8.97672C10.3771 9.03988 10.4111 9.15171 10.4451 9.31204C10.4791 9.47237 10.501 9.64973 10.5107 9.84402C10.5349 10.1988 10.5349 10.5025 10.5107 10.7552C10.4864 11.0079 10.4634 11.2047 10.4414 11.3456C10.4195 11.4866 10.3867 11.6008 10.343 11.6882C10.2992 11.7757 10.2701 11.8291 10.2555 11.8485C10.2409 11.8679 10.2288 11.8802 10.2191 11.885C10.156 11.9092 10.0903 11.9215 10.0223 11.9215C9.95419 11.9215 9.87163 11.8875 9.77446 11.8194C9.67731 11.7513 9.57649 11.6578 9.47199 11.5388C9.3675 11.4197 9.24965 11.2532 9.11839 11.0394C8.98724 10.8256 8.85116 10.573 8.71023 10.2814L8.59363 10.0699C8.52074 9.93392 8.42117 9.73585 8.29482 9.47592C8.16839 9.21589 8.05665 8.96436 7.9595 8.72138C7.92067 8.61934 7.86233 8.54165 7.78459 8.48819L7.74811 8.46625C7.72385 8.44685 7.68492 8.42625 7.63151 8.40429C7.57802 8.38236 7.52221 8.36663 7.46385 8.35696L5.4666 8.37146C5.26251 8.37146 5.12403 8.4177 5.05111 8.51004L5.02193 8.55372C5.00735 8.57805 5 8.61691 5 8.6704C5 8.72386 5.01458 8.78947 5.04376 8.86716C5.33532 9.55241 5.65239 10.2133 5.99496 10.8499C6.33753 11.4864 6.63522 11.9992 6.88785 12.3878C7.14053 12.7766 7.39808 13.1435 7.66051 13.4884C7.92294 13.8335 8.09665 14.0546 8.18164 14.1518C8.26674 14.2491 8.33358 14.3218 8.38216 14.3704L8.56443 14.5453C8.68105 14.662 8.85231 14.8017 9.07829 14.9644C9.30431 15.1273 9.55454 15.2876 9.82909 15.4457C10.1037 15.6035 10.4232 15.7323 10.7877 15.8319C11.1521 15.9316 11.5068 15.9716 11.8519 15.9523H12.6902C12.8602 15.9376 12.989 15.8841 13.0765 15.7919L13.1055 15.7553C13.125 15.7263 13.1433 15.6813 13.1601 15.6206C13.1772 15.5599 13.1857 15.493 13.1857 15.4202C13.1807 15.2113 13.1966 15.023 13.233 14.8554C13.2693 14.6878 13.3107 14.5614 13.357 14.4763C13.4033 14.3913 13.4555 14.3196 13.5137 14.2614C13.5719 14.2031 13.6134 14.1678 13.6378 14.1557C13.662 14.1434 13.6813 14.1351 13.6959 14.1302C13.8125 14.0913 13.9498 14.1289 14.1079 14.2432C14.2658 14.3574 14.414 14.4984 14.5526 14.666C14.6911 14.8338 14.8575 15.0219 15.0518 15.2309C15.2463 15.4399 15.4163 15.5952 15.5621 15.6974L15.7078 15.7849C15.8051 15.8432 15.9315 15.8967 16.087 15.9453C16.2422 15.9938 16.3783 16.006 16.4951 15.9817L18.361 15.9526C18.5456 15.9526 18.6892 15.9221 18.7911 15.8614C18.8932 15.8007 18.9538 15.7338 18.9733 15.661C18.9929 15.5881 18.9939 15.5054 18.977 15.413C18.9598 15.3208 18.9427 15.2564 18.9258 15.2199Z" fill="white"/>
</g>
<defs>
<clipPath id="clip0">
<rect x="5" y="5" width="14" height="14" fill="white"/>
</clipPath>
</defs>
</svg>
