<svg width="24" height="24" viewBox="0 0 24 24" fill="none" xmlns="http://www.w3.org/2000/svg">
<circle cx="12" cy="12" r="12" fill="black"/>
<path d="M14.9161 6.16908L13.4032 6.16666C11.7036 6.16666 10.6052 7.2936 10.6052 9.03784V10.3616H9.08402C8.95257 10.3616 8.84613 10.4682 8.84613 10.5997V12.5177C8.84613 12.6491 8.95269 12.7556 9.08402 12.7556H10.6052V17.5954C10.6052 17.7269 10.7116 17.8333 10.843 17.8333H12.8277C12.9592 17.8333 13.0656 17.7268 13.0656 17.5954V12.7556H14.8442C14.9756 12.7556 15.0821 12.6491 15.0821 12.5177L15.0828 10.5997C15.0828 10.5365 15.0577 10.4761 15.0131 10.4314C14.9686 10.3868 14.9079 10.3616 14.8448 10.3616H13.0656V9.23944C13.0656 8.70006 13.1941 8.42624 13.8967 8.42624L14.9159 8.42588C15.0472 8.42588 15.1537 8.31932 15.1537 8.18799V6.40697C15.1537 6.27577 15.0473 6.16933 14.9161 6.16908Z" fill="white"/>
</svg>
