<svg width="24" height="24" viewBox="0 0 24 24" fill="none" xmlns="http://www.w3.org/2000/svg">
<circle cx="12" cy="12" r="12" fill="black"/>
<path d="M8.87554 9.91534H6.52828C6.4241 9.91534 6.33969 9.99979 6.33969 10.1039V17.6447C6.33969 17.7488 6.4241 17.8333 6.52828 17.8333H8.87554C8.97971 17.8333 9.06412 17.7488 9.06412 17.6447V10.1039C9.06412 9.99979 8.97971 9.91534 8.87554 9.91534Z" fill="white"/>
<path d="M7.70274 6.16666C6.84867 6.16666 6.15384 6.86073 6.15384 7.71386C6.15384 8.56736 6.84867 9.2617 7.70274 9.2617C8.55613 9.2617 9.25039 8.56732 9.25039 7.71386C9.25043 6.86073 8.55613 6.16666 7.70274 6.16666Z" fill="white"/>
<path d="M14.8459 9.72794C13.9032 9.72794 13.2063 10.1332 12.7836 10.5937V10.1039C12.7836 9.9998 12.6992 9.91535 12.595 9.91535H10.3471C10.2429 9.91535 10.1585 9.9998 10.1585 10.1039V17.6447C10.1585 17.7489 10.2429 17.8333 10.3471 17.8333H12.6892C12.7934 17.8333 12.8778 17.7489 12.8778 17.6447V13.9138C12.8778 12.6565 13.2193 12.1667 14.0957 12.1667C15.0502 12.1667 15.126 12.9519 15.126 13.9784V17.6447C15.126 17.7489 15.2104 17.8333 15.3146 17.8333H17.6576C17.7618 17.8333 17.8462 17.7489 17.8462 17.6447V13.5085C17.8462 11.639 17.4897 9.72794 14.8459 9.72794Z" fill="white"/>
</svg>
