<svg width="24" height="24" viewBox="0 0 24 24" fill="none" xmlns="http://www.w3.org/2000/svg">
<path d="M16.944 24C15.8915 24 14.8489 23.7667 13.9083 23.3231C13.2394 23.4327 12.6641 23.4844 12.1181 23.4844C5.77222 23.4844 0.609375 18.384 0.609375 12.1148C0.609375 11.5043 0.669983 10.8691 0.793945 10.1829C0.27356 9.19464 0 8.09161 0 6.97028C0 3.12689 3.16589 0 7.05743 0C8.26849 0 9.45172 0.305786 10.5013 0.887329C10.9794 0.825806 11.5025 0.796875 12.1181 0.796875C15.1846 0.796875 18.0632 1.97113 20.2236 4.10303C22.3868 6.23785 23.5781 9.08331 23.5781 12.1152C23.5781 12.9185 23.5234 13.5998 23.4071 14.2299C23.8008 15.1093 24 16.0496 24 17.0297C24 20.8731 20.8347 24 16.944 24ZM14.2044 21.3658L14.4924 21.5189C15.2377 21.9153 16.0854 22.125 16.944 22.125C19.8008 22.125 22.125 19.8393 22.125 17.0297C22.125 16.233 21.945 15.4741 21.5898 14.7739L21.4374 14.4732L21.5112 14.1443C21.6422 13.5613 21.7031 12.9166 21.7031 12.1152C21.7031 6.9082 17.4033 2.67188 12.1181 2.67188C11.4582 2.67188 10.9341 2.7085 10.4685 2.78741L10.1186 2.84656L9.8172 2.65924C8.99176 2.14618 8.03741 1.875 7.05743 1.875C4.19989 1.875 1.875 4.16071 1.875 6.97028C1.875 7.87665 2.12036 8.76636 2.58453 9.54327L2.77148 9.85638L2.69788 10.2136C2.55414 10.9092 2.48438 11.5311 2.48438 12.1148C2.48438 17.3502 6.80603 21.6094 12.1181 21.6094C12.6313 21.6094 13.1924 21.5506 13.8838 21.4244L14.2044 21.3658ZM18.0469 14.5717C18.0469 13.8975 17.9138 13.3178 17.6483 12.8487C17.3828 12.3816 17.0094 11.9905 16.5397 11.6852C16.0779 11.3864 15.5112 11.1304 14.8566 10.921C14.2095 10.7157 13.4778 10.5267 12.6819 10.3566C12.052 10.212 11.5937 10.0994 11.3205 10.0245C11.0535 9.95142 10.788 9.84778 10.5291 9.71924C10.2795 9.59528 10.0831 9.44604 9.94171 9.27759C9.80988 9.11682 9.70312 8.93115 9.70312 8.7085C9.70312 8.34467 9.94519 8.03815 10.3563 7.771C10.7816 7.49304 11.3547 7.37805 12.0597 7.37805C12.8179 7.37805 13.3722 7.48041 13.7021 7.7298C14.0429 7.98578 14.3397 8.35126 14.5845 8.81543C14.7968 9.17798 14.9879 9.43085 15.1719 9.59271C15.3699 9.76593 15.6557 9.84375 16.0199 9.84375C16.4203 9.84375 16.7611 9.71356 17.0295 9.43542C17.298 9.15875 17.4844 8.84088 17.4844 8.49152C17.4844 8.12915 17.3295 7.75415 17.1253 7.37732C16.9226 7.0036 16.6025 6.64471 16.1691 6.3078C15.7403 5.97382 15.1926 5.70374 14.5455 5.5036C13.9003 5.3031 13.1274 5.20312 12.2485 5.20312C11.1508 5.20312 10.179 5.35382 9.36401 5.6543C8.53656 5.95789 7.89294 6.40302 7.45477 6.97192C7.01056 7.54541 6.75 8.21136 6.75 8.95056C6.75 9.7262 6.99939 10.3839 7.42163 10.91C7.83801 11.4267 8.40582 11.8398 9.11261 12.1386C9.80182 12.4296 10.6683 12.6868 11.6891 12.9045C12.4396 13.0622 13.047 13.2116 13.4947 13.3499C13.9217 13.4819 14.2766 13.6758 14.5452 13.9252C14.7995 14.1621 14.9388 14.4657 14.9388 14.8519C14.9388 15.34 14.6847 15.7405 14.1949 16.0726C13.6941 16.4127 13.0281 16.5469 12.215 16.5469C11.6228 16.5469 11.1425 16.5002 10.786 16.3315C10.4312 16.1662 10.1532 15.9514 9.96149 15.6989C9.75916 15.4334 9.56927 15.1002 9.39496 14.7025C9.23932 14.3388 9.04651 14.0555 8.81873 13.8651C8.5816 13.6663 8.28992 13.5469 7.95227 13.5469C7.5412 13.5469 7.19568 13.6932 6.92542 13.9444C6.65387 14.1985 6.51562 14.5098 6.51562 14.8676C6.51562 15.4413 6.72748 16.0358 7.14679 16.6335C7.55823 17.2262 8.10443 17.7078 8.76544 18.0624C9.68866 18.5504 10.8741 18.7969 12.2871 18.7969C13.463 18.7969 14.4979 18.6158 15.3596 18.26C16.231 17.9009 16.9028 17.3939 17.3582 16.7534C17.8152 16.1113 18.046 15.3772 18.0469 14.5717Z" fill="#6D8088"/>
</svg>
