<svg width="14" height="14" viewBox="0 0 14 14" fill="none" xmlns="http://www.w3.org/2000/svg">
<path fill-rule="evenodd" clip-rule="evenodd" d="M8.35 8.35C7.25 9.485 7.175 10.9 7.075 14C9.965 14 11.96 13.99 12.99 12.99C13.99 11.96 14 9.87 14 7.075C10.9 7.175 9.485 7.25 8.35 8.35ZM6.925 14C4.035 14 2.04 13.99 1.01 12.99C0.00999999 11.96 0 9.87 0 7.075C3.1 7.175 4.515 7.25 5.65 8.35C6.75 9.485 6.825 10.9 6.925 14ZM5.65 5.65C4.515 6.75 3.1 6.825 0 6.925C0 4.13 0.00999999 2.04 1.01 1.01C2.04 0.00999999 4.04 0 6.925 0C6.825 3.1 6.75 4.515 5.65 5.65ZM7.075 0C7.17 3.1 7.25 4.515 8.35 5.65C9.485 6.75 10.9 6.825 14 6.925C14 4.13 13.99 2.04 12.99 1.01C11.96 0.00999999 9.965 0 7.075 0Z" fill="white"/>
</svg>
