<svg width="14" height="14" viewBox="0 0 14 14" fill="none" xmlns="http://www.w3.org/2000/svg">
<g clip-path="url(#clip0)">
<path d="M13.9258 10.2199C13.9088 10.1834 13.893 10.1531 13.8783 10.1288C13.6354 9.69135 13.1713 9.15438 12.4861 8.51777L12.4716 8.50319L12.4644 8.49605L12.457 8.48872H12.4497C12.1387 8.19228 11.9418 7.99296 11.8593 7.89092C11.7085 7.69652 11.6747 7.49976 11.7571 7.30039C11.8154 7.14976 12.0342 6.83164 12.4132 6.34561C12.6125 6.08804 12.7703 5.88159 12.8869 5.72606C13.7277 4.60832 14.0922 3.89407 13.9803 3.58303L13.9369 3.51035C13.9077 3.46659 13.8324 3.42655 13.7111 3.39005C13.5894 3.35361 13.434 3.34759 13.2444 3.37187L11.1452 3.38637C11.1112 3.37432 11.0626 3.37544 10.9993 3.39005C10.9362 3.40465 10.9045 3.41198 10.9045 3.41198L10.868 3.43023L10.839 3.45216C10.8147 3.46666 10.788 3.49217 10.7588 3.52863C10.7298 3.56496 10.7055 3.60759 10.6861 3.65618C10.4575 4.24418 10.1977 4.79087 9.90604 5.29622C9.72623 5.59756 9.56109 5.85872 9.41028 6.07984C9.25968 6.30089 9.13333 6.46375 9.03136 6.56814C8.92923 6.67264 8.83707 6.75635 8.7543 6.81959C8.67165 6.88286 8.60857 6.90959 8.56488 6.89981C8.5211 6.89003 8.47987 6.88033 8.44083 6.87063C8.37284 6.82687 8.31815 6.76736 8.27692 6.69204C8.23551 6.61673 8.20763 6.52193 8.19305 6.40773C8.17855 6.29346 8.16997 6.19516 8.16752 6.11252C8.16525 6.02998 8.1663 5.91323 8.17122 5.76259C8.17628 5.61189 8.17855 5.50992 8.17855 5.45646C8.17855 5.27177 8.18215 5.07132 8.18938 4.85508C8.19673 4.63883 8.20268 4.46749 8.20766 4.34127C8.21261 4.21492 8.21491 4.08124 8.21491 3.94031C8.21491 3.79938 8.20633 3.68886 8.18938 3.60864C8.17263 3.52852 8.14692 3.45076 8.11304 3.37537C8.07896 3.30005 8.02907 3.24179 7.96361 3.20043C7.89802 3.15912 7.81647 3.12634 7.71943 3.10198C7.46185 3.0437 7.13386 3.01216 6.7353 3.00726C5.83148 2.99756 5.25073 3.05592 4.99318 3.18228C4.89113 3.23566 4.79879 3.3086 4.71622 3.40087C4.62873 3.50782 4.61652 3.56618 4.67969 3.57578C4.9713 3.61947 5.17774 3.72396 5.29924 3.88917L5.34303 3.97672C5.37709 4.03988 5.41109 4.15171 5.44513 4.31204C5.47911 4.47237 5.50104 4.64973 5.51069 4.84402C5.53494 5.19882 5.53494 5.50254 5.51069 5.75519C5.48636 6.00795 5.46338 6.20471 5.44145 6.34564C5.41952 6.48657 5.38674 6.60077 5.34303 6.68821C5.29924 6.77568 5.27011 6.82914 5.25551 6.84855C5.24093 6.86795 5.22878 6.88018 5.21913 6.88498C5.15596 6.90918 5.09027 6.92151 5.02228 6.92151C4.95419 6.92151 4.87163 6.88745 4.77446 6.81939C4.67731 6.75132 4.57649 6.65783 4.47199 6.53876C4.3675 6.41965 4.24965 6.25322 4.11839 6.03942C3.98724 5.82563 3.85116 5.57295 3.71023 5.28139L3.59363 5.06994C3.52074 4.93392 3.42117 4.73585 3.29482 4.47592C3.16839 4.21589 3.05665 3.96436 2.9595 3.72138C2.92067 3.61934 2.86233 3.54165 2.78459 3.48819L2.74811 3.46625C2.72385 3.44685 2.68492 3.42625 2.63151 3.40429C2.57802 3.38236 2.52221 3.36663 2.46385 3.35696L0.4666 3.37146C0.262507 3.37146 0.124028 3.4177 0.0511126 3.51004L0.0219309 3.55372C0.00735286 3.57805 0 3.61691 0 3.6704C0 3.72386 0.0145781 3.78947 0.0437597 3.86716C0.335321 4.55241 0.652388 5.21327 0.99496 5.84986C1.33753 6.48644 1.63522 6.99923 1.88785 7.38776C2.14053 7.77656 2.39808 8.14352 2.66051 8.48844C2.92294 8.83349 3.09665 9.05461 3.18164 9.15175C3.26674 9.24908 3.33358 9.32184 3.38216 9.37042L3.56443 9.54534C3.68105 9.66199 3.85231 9.80169 4.07829 9.96445C4.30431 10.1273 4.55454 10.2876 4.82909 10.4457C5.1037 10.6035 5.42317 10.7323 5.78767 10.8319C6.15212 10.9316 6.50685 10.9716 6.8519 10.9523H7.69017C7.86018 10.9376 7.98899 10.8841 8.07653 10.7919L8.10553 10.7553C8.12504 10.7263 8.14329 10.6813 8.16014 10.6206C8.1772 10.5599 8.18567 10.493 8.18567 10.4202C8.1807 10.2113 8.1966 10.023 8.23296 9.85536C8.26929 9.68777 8.3107 9.56142 8.35701 9.47633C8.4033 9.39131 8.45554 9.31957 8.51367 9.26141C8.57193 9.20312 8.61344 9.16781 8.6378 9.15566C8.662 9.14343 8.68133 9.13513 8.69591 9.13015C8.81253 9.0913 8.94979 9.12893 9.10787 9.24323C9.26583 9.35743 9.41399 9.49844 9.55257 9.66602C9.69107 9.83376 9.85748 10.0219 10.0518 10.2309C10.2463 10.4399 10.4163 10.5952 10.5621 10.6974L10.7078 10.7849C10.8051 10.8432 10.9315 10.8967 11.087 10.9453C11.2422 10.9938 11.3783 11.006 11.4951 10.9817L13.361 10.9526C13.5456 10.9526 13.6892 10.9221 13.7911 10.8614C13.8932 10.8007 13.9538 10.7338 13.9733 10.661C13.9929 10.5881 13.9939 10.5054 13.977 10.413C13.9598 10.3208 13.9427 10.2564 13.9258 10.2199Z" fill="white"/>
</g>
<defs>
<clipPath id="clip0">
<rect width="14" height="14" fill="white"/>
</clipPath>
</defs>
</svg>
